<svg viewBox="0 0 700 248" xmlns="http://www.w3.org/2000/svg" font-family="Helvetica Neue, Helvetica, Arial, sans-serif">
  <defs>
    <marker id="arr" viewBox="0 0 12 12" refX="10" refY="6" markerWidth="8" markerHeight="8" orient="auto-start-reverse">
      <path d="M 1 1.5 L 10.5 6 L 1 10.5 C 3 8.5, 3 3.5, 1 1.5 z" fill="#64748b"/>
    </marker>
    <marker id="arrx" viewBox="0 0 12 12" refX="10" refY="6" markerWidth="8" markerHeight="8" orient="auto-start-reverse">
      <path d="M 1 1.5 L 10.5 6 L 1 10.5 C 3 8.5, 3 3.5, 1 1.5 z" fill="#94a3b8"/>
    </marker>
    <filter id="soft" x="-20%" y="-20%" width="140%" height="140%">
      <feDropShadow dx="0" dy="1" stdDeviation="1.6" flood-color="#0f172a" flood-opacity="0.10"/>
    </filter>
  </defs>
  <rect width="700" height="248" fill="white"/>

  <!-- task instruction -->
  <rect x="36" y="54" width="178" height="52" rx="10" fill="#f1f5f9" stroke="#94a3b8" stroke-width="1.4" filter="url(#soft)"/>
  <text x="125" y="86" font-size="16" text-anchor="middle" fill="#334155">task instruction</text>

  <!-- VLA -->
  <rect x="556" y="50" width="108" height="60" rx="10" fill="#ebf4ff" stroke="#2b6cb0" stroke-width="1.6" filter="url(#soft)"/>
  <text x="610" y="77" font-size="20" font-weight="bold" text-anchor="middle" fill="#1e3a8a">VLA</text>
  <text x="610" y="98" font-size="14" text-anchor="middle" fill="#2b6cb0">executor</text>

  <!-- cancelled direct edge -->
  <line x1="214" y1="80" x2="368" y2="80" stroke="#94a3b8" stroke-width="1.7" stroke-dasharray="7,6"/>
  <line x1="398" y1="80" x2="550" y2="80" stroke="#94a3b8" stroke-width="1.7" stroke-dasharray="7,6" marker-end="url(#arrx)"/>
  <line x1="377" y1="74" x2="389" y2="86" stroke="#ef4444" stroke-width="2.4" stroke-linecap="round"/>
  <line x1="389" y1="74" x2="377" y2="86" stroke="#ef4444" stroke-width="2.4" stroke-linecap="round"/>

  <!-- detour through rephraser -->
  <path d="M 196 106 C 236 148, 256 158, 286 160" fill="none" stroke="#64748b" stroke-width="1.7" marker-end="url(#arr)"/>
  <rect x="292" y="132" width="182" height="62" rx="10" fill="#ede9fe" stroke="#7c3aed" stroke-width="1.6" filter="url(#soft)"/>
  <text x="383" y="160" font-size="20" font-weight="bold" text-anchor="middle" fill="#312e81">rephraser</text>
  <text x="383" y="182" font-size="14" text-anchor="middle" fill="#6d28d9">VLM</text>
  <path d="M 474 160 C 510 158, 530 148, 566 114" fill="none" stroke="#64748b" stroke-width="1.7" marker-end="url(#arr)"/>

  <!-- phrasing rules card -->
  <rect x="310" y="212" width="146" height="32" rx="9" fill="#f5f3ff" stroke="#7c3aed" stroke-width="1.3" filter="url(#soft)"/>
  <text x="383" y="233" font-size="13.5" text-anchor="middle" fill="#6d28d9">phrasing rules</text>
  <line x1="383" y1="212" x2="383" y2="198" stroke="#7c3aed" stroke-width="1.5" marker-end="url(#arr)" opacity="0.8"/>
</svg>
